<?xml version="1.0" encoding="UTF-8" standalone="no"?>
<svg
   xmlns:dc="http://purl.org/dc/elements/1.1/"
   xmlns:cc="http://creativecommons.org/ns#"
   xmlns:rdf="http://www.w3.org/1999/02/22-rdf-syntax-ns#"
   xmlns:svg="http://www.w3.org/2000/svg"
   xmlns="http://www.w3.org/2000/svg"
   xmlns:sodipodi="http://sodipodi.sourceforge.net/DTD/sodipodi-0.dtd"
   xmlns:inkscape="http://www.inkscape.org/namespaces/inkscape"
   version="1.1"
   id="ps_x5F_cc_x5F_app_x5F_RGB.svg"
   x="0px"
   y="0px"
   viewBox="0 0 4096 4096"
   xml:space="preserve"
   sodipodi:docname="photoshop-logo.svg"
   width="4096"
   height="4096"
   inkscape:export-filename="C:\Users\suitedoalex\sites\photoshop-logo-0.png"
   inkscape:export-xdpi="96"
   inkscape:export-ydpi="96"
   inkscape:version="0.92.2 (5c3e80d, 2017-08-06)"><metadata
     id="metadata17"><rdf:RDF><cc:Work
         rdf:about=""><dc:format>image/svg+xml</dc:format><dc:type
           rdf:resource="http://purl.org/dc/dcmitype/StillImage" /><dc:title></dc:title></cc:Work></rdf:RDF></metadata><defs
     id="defs15" /><sodipodi:namedview
     pagecolor="#ffffff"
     bordercolor="#666666"
     borderopacity="1"
     objecttolerance="10"
     gridtolerance="10"
     guidetolerance="10"
     inkscape:pageopacity="0"
     inkscape:pageshadow="2"
     inkscape:window-width="1920"
     inkscape:window-height="1017"
     id="namedview13"
     showgrid="false"
     inkscape:zoom="0.12606838"
     inkscape:cx="930.42783"
     inkscape:cy="1611.4247"
     inkscape:window-x="-8"
     inkscape:window-y="-8"
     inkscape:window-maximized="1"
     inkscape:current-layer="ps_x5F_cc_x5F_app_x5F_RGB.svg" /><g
     id="g4"
     transform="matrix(13,0,0,13,487.9935,527)"
     inkscape:export-filename="C:\Users\suitedoalex\sites\photoshop-logo-4.png"
     inkscape:export-xdpi="12.30764"
     inkscape:export-ydpi="12.30764"><rect
       x="10"
       y="10"
       style="clip-rule:evenodd;fill:#001d26;fill-rule:evenodd"
       width="220"
       height="214"
       id="rect2" /></g><g
     id="g8"
     transform="matrix(13,0,0,13,487.9935,527)"
     inkscape:export-filename="C:\Users\suitedoalex\sites\photoshop-logo-4.png"
     inkscape:export-xdpi="12.30764"
     inkscape:export-ydpi="12.30764"><path
       style="clip-rule:evenodd;fill:#00c8ff;fill-rule:evenodd"
       d="M 0,0 V 234 H 240.001 V 0 Z M 10,10 H 230.001 V 224 H 10 Z"
       id="path6"
       inkscape:connector-curvature="0" /></g><path
     style="clip-rule:evenodd;fill:#00c8ff;fill-rule:evenodd;stroke-width:13"
     d="m 1241.9935,1239.257 c 0,-8.58 18.395,-15.002 29.12,-15.002 83.655,-4.29 206.466,-6.435 335.166,-6.435 360.36,0 500.695,197.353 500.695,450.437 0,330.33 -239.564,471.913 -533.429,471.913 -49.335,0 -66.495,-2.158 -100.815,-2.158 v 499.46 c 0,10.738 -4.29,15.028 -15.015,15.028 h -200.707 c -10.725,0 -15.015,-4.29 -15.015,-15.028 z m 230.75,690.703 c 30.03,2.132 53.625,2.132 105.105,2.132 152.295,0 295.334,-53.625 295.334,-259.545 0,-165.165 -102.284,-248.82 -276.029,-248.82 -51.48,0 -100.815,2.145 -124.41,4.29 z m 1118.936,-154.453 c -102.96,0 -137.28,51.493 -137.28,94.38 0,47.203 23.582,79.365 160.875,150.163 203.775,98.67 268.125,193.0501 268.125,332.475 0,208.078 -158.73,319.618 -373.23,319.618 -113.685,0 -210.444,-23.608 -266.214,-55.783 -8.58,-4.29 -10.725,-10.712 -10.725,-21.45 v -190.892 c 0,-12.87 6.435,-17.16 15.0149,-10.738 81.5101,53.625 176.1111,77.233 261.9111,77.233 102.96,0 145.86,-42.913 145.86,-100.828 0,-47.203 -30.03,-87.958 -160.875,-156.5849 -184.47,-87.9581 -261.69,-178.0481 -261.69,-328.1851 0,-167.323 130.845,-306.748 358.215,-306.748 111.54,0 190.294,17.16 233.194,36.465 10.725,6.448 12.87,17.16 12.87,25.74 v 178.048 c 0,10.712 -6.435,17.16 -19.305,12.87 -57.902,-34.32 -143.078,-55.783 -226.746,-55.783 z"
     id="path10"
     inkscape:connector-curvature="0"
     inkscape:export-filename="C:\Users\suitedoalex\sites\photoshop-logo-4.png"
     inkscape:export-xdpi="12.30764"
     inkscape:export-ydpi="12.30764" /></svg>